<svg xmlns="http://www.w3.org/2000/svg" viewBox="0 0 170 56"><g id="Layer_2" data-name="Layer 2"><g id="Artwork"><polygon points="54.55 0.69 41.08 0.69 15.6 28.34 41.08 56 54.55 56 29.08 28.34 54.55 0.69"/><path d="M124.29,37.61a18.16,18.16,0,0,1-15.42,8.49,18,18,0,0,1-18.1-17.8,18,18,0,0,1,18.1-17.8A18.15,18.15,0,0,1,124.32,19l6.93-7.53A28.24,28.24,0,0,0,108.87.6,27.93,27.93,0,0,0,80.71,28.3,27.93,27.93,0,0,0,108.87,56a28.25,28.25,0,0,0,22.35-10.87Z"/><polygon points="170 0.69 156.52 0.69 131.05 28.34 156.52 56 170 56 144.53 28.34 170 0.69"/><rect x="62.19" y="0.69" width="10.72" height="55.31"/><rect width="10.72" height="56"/></g></g></svg>