<?xml version="1.0" encoding="UTF-8"?><svg id="Layer_2" xmlns="http://www.w3.org/2000/svg" width="89.624" height="77.4054" xmlns:xlink="http://www.w3.org/1999/xlink" viewBox="0 0 89.624 77.4054"><defs><style>.cls-1{fill:none;}.cls-2{clip-path:url(#clippath);}</style><clipPath id="clippath"><rect class="cls-1" y=".0004" width="89.624" height="77.405"/></clipPath></defs><g id="Layer_1-2"><polygon points="44.8119 0 1.6979 38.426 1.6979 60.405 44.8119 21.98 87.9259 60.405 87.9259 38.426 44.8119 0"/><g class="cls-2"><path d="m1.3501,66.9051h4.709c1.2012,0,2.1455.3301,2.7461.9307.4648.4648.7051,1.0352.7051,1.7393v.0303c0,1.2598-.7207,1.9346-1.5,2.3398,1.2295.4199,2.084,1.125,2.084,2.5498v.0303c0,1.875-1.5449,2.8799-3.8848,2.8799H1.3501v-10.5Zm4.334,4.4248c1.1855,0,1.9805-.4648,1.9805-1.4248v-.0293c0-.8252-.6602-1.335-1.8447-1.335h-2.6553v2.7891h2.5195Zm.541,4.4404c1.2598,0,2.0244-.4951,2.0244-1.4404v-.0293c0-.8857-.7041-1.4102-2.1592-1.4102h-2.9258v2.8799h3.0605Z"/><path d="m16.815,77.4051v-.9746c-.541.6445-1.3652,1.1396-2.5654,1.1396-1.5,0-2.8193-.8555-2.8193-2.4453v-.0293c0-1.7549,1.3643-2.5957,3.209-2.5957.9609,0,1.5752.1357,2.1895.3301v-.1494c0-1.0947-.6895-1.6953-1.9492-1.6953-.8848,0-1.5449.1953-2.2646.4951l-.4951-1.4551c.8691-.3896,1.7246-.6602,3.0146-.6602,2.3398,0,3.4795,1.2305,3.4795,3.3457v4.6943h-1.7988Zm.0449-3.3145c-.4648-.1807-1.1104-.3154-1.8154-.3154-1.1396,0-1.8154.4648-1.8154,1.2295v.0303c0,.75.6758,1.1699,1.5303,1.1699,1.2002,0,2.1006-.6748,2.1006-1.665v-.4492Z"/><path d="m20.3404,73.4901v-.0303c0-2.249,1.7393-4.1396,4.1094-4.1396,1.5,0,2.4297.5557,3.1641,1.3652l-1.125,1.2148c-.5547-.585-1.1387-.9902-2.0547-.9902-1.3193,0-2.2793,1.1406-2.2793,2.5205v.0293c0,1.4102.9746,2.5508,2.3691,2.5508.8555,0,1.4854-.4053,2.0557-.9902l1.0947,1.0801c-.7793.8701-1.6953,1.4844-3.2402,1.4844-2.3545,0-4.0938-1.8447-4.0938-4.0947Z"/><path d="m29.3404,66.4559h1.8145v6.5391l3.2852-3.5098h2.2051l-3.1504,3.2256,3.2549,4.6943h-2.1006l-2.3848-3.4199-1.1094,1.1553v2.2646h-1.8145v-10.9492Z"/><path d="m42.9439,75.2157v-4.1699h-1.0049v-1.5605h1.0049v-2.1748h1.8154v2.1748h2.1299v1.5605h-2.1299v3.8848c0,.7051.3604.9893.9746.9893.4053,0,.7646-.0898,1.125-.2695v1.4854c-.4502.2549-.96.4043-1.6348.4043-1.335,0-2.2803-.585-2.2803-2.3242Z"/><path d="m48.0591,73.4901v-.0303c0-2.2646,1.7998-4.1396,4.2295-4.1396s4.2148,1.8447,4.2148,4.1104v.0293c0,2.25-1.7998,4.125-4.2451,4.125-2.4141,0-4.1992-1.8447-4.1992-4.0947Zm6.6289,0v-.0303c0-1.3945-1.0039-2.5498-2.4297-2.5498-1.4551,0-2.3848,1.1406-2.3848,2.5205v.0293c0,1.3809,1.0059,2.5508,2.415,2.5508,1.4697,0,2.3994-1.1553,2.3994-2.5205Z"/><path d="m65.6392,68.6151h-3.3301v-1.71h8.5195v1.71h-3.3301v8.79h-1.8594v-8.79Z"/><path d="m70.439,73.4901v-.0303c0-2.2646,1.7998-4.1396,4.2295-4.1396s4.2148,1.8447,4.2148,4.1104v.0293c0,2.25-1.7998,4.125-4.2441,4.125-2.416,0-4.2002-1.8447-4.2002-4.0947Zm6.6299,0v-.0303c0-1.3945-1.0059-2.5498-2.4297-2.5498-1.4551,0-2.3848,1.1406-2.3848,2.5205v.0293c0,1.3809,1.0039,2.5508,2.4141,2.5508,1.4707,0,2.4004-1.1553,2.4004-2.5205Z"/><path d="m80.729,69.4852h1.8145v1.3203c.5859-.8252,1.4102-1.4854,2.6855-1.4854,1.875,0,3.6895,1.4854,3.6895,4.1104v.0293c0,2.625-1.7998,4.1104-3.6895,4.1104-1.3047,0-2.1309-.6602-2.6855-1.3945v3.6299h-1.8145v-10.3203Zm6.3447,3.9746v-.0293c0-1.5303-1.0352-2.5352-2.2646-2.5352-1.2305,0-2.3105,1.0195-2.3105,2.5352v.0293c0,1.5303,1.0801,2.5352,2.3105,2.5352,1.2441,0,2.2646-.9746,2.2646-2.5352Z"/></g></g></svg>