<?xml version="1.0" encoding="UTF-8"?><svg id="Layer_2" xmlns="http://www.w3.org/2000/svg" width="205.9502" height="185.0007" viewBox="0 0 205.9502 185.0007"><defs><style>.cls-1{fill:#fff;}</style></defs><g id="Layer_1-2"><polygon class="cls-1" points="102.9751 0 0 93.3171 0 142.6896 102.9751 49.3725 205.9502 142.6896 205.9502 93.3171 102.9751 0"/><path class="cls-1" d="m18.3218,167.075c1.7783-.9238,3.4209-2.4639,3.4209-5.3369v-.0684c0-1.6084-.5479-2.9082-1.6084-3.9688-1.3682-1.3682-3.5234-2.1211-6.2598-2.1211H3.1323v23.9473h11.084c5.3369,0,8.8604-2.292,8.8604-6.5684v-.0684c0-3.25-1.9502-4.8574-4.7549-5.8154Zm-11.0498-7.7656h6.0547c2.7031,0,4.208,1.1631,4.208,3.0439v.0684c0,2.1895-1.8135,3.25-4.5156,3.25h-5.7471v-6.3623Zm11.5967,13.2051c0,2.1553-1.7441,3.2842-4.6182,3.2842h-6.9785v-6.5684h6.6709c3.3184,0,4.9258,1.1973,4.9258,3.2158v.0684Z"/><path class="cls-1" d="m34.5718,161.1902c-2.9424,0-4.8916.6162-6.876,1.5059l1.1289,3.3184c1.6416-.6846,3.1475-1.1289,5.165-1.1289,2.874,0,4.4482,1.3682,4.4482,3.8652v.3418c-1.4033-.4443-2.8057-.752-4.9951-.752-4.208,0-7.3213,1.916-7.3213,5.918v.0684c0,3.627,3.0107,5.5762,6.4316,5.5762,2.7373,0,4.6182-1.1289,5.8496-2.5996v2.2236h4.1055v-10.708c0-4.8232-2.5996-7.6289-7.9365-7.6289Zm3.9346,11.8027c0,2.2578-2.0527,3.7979-4.79,3.7979-1.9502,0-3.4893-.958-3.4893-2.6689v-.0684c0-1.7451,1.5391-2.8057,4.1396-2.8057,1.6074,0,3.0791.3086,4.1396.7188v1.0264Z"/><path class="cls-1" d="m55.9868,176.3455c-3.1816,0-5.4053-2.5996-5.4053-5.8154v-.0684c0-3.1475,2.1895-5.748,5.2002-5.748,2.0869,0,3.4209.9238,4.6865,2.2588l2.5664-2.7715c-1.6768-1.8477-3.7979-3.1133-7.2188-3.1133-5.4053,0-9.374,4.3105-9.374,9.4424v.0684c0,5.1318,3.9688,9.3389,9.3398,9.3389,3.5234,0,5.6104-1.4023,7.3896-3.3867l-2.498-2.4629c-1.2998,1.334-2.7363,2.2578-4.6865,2.2578Z"/><polygon class="cls-1" points="83.6294 161.4646 78.6001 161.4646 71.1079 169.4695 71.1079 154.5535 66.9683 154.5535 66.9683 179.5271 71.1079 179.5271 71.1079 174.3611 73.6392 171.7273 79.0786 179.5271 83.8687 179.5271 76.4448 168.8191 83.6294 161.4646"/><path class="cls-1" d="m102.1372,156.5037h-4.1396v4.9609h-2.292v3.5576h2.292v9.5098c0,3.9688,2.1553,5.3027,5.2002,5.3027,1.5391,0,2.7021-.3418,3.7285-.9238v-3.3867c-.8203.4111-1.6416.6162-2.5654.6162-1.4023,0-2.2236-.6504-2.2236-2.2578v-8.8604h4.8574v-3.5576h-4.8574v-4.9609Z"/><path class="cls-1" d="m119.3101,161.0876c-5.542,0-9.6475,4.2764-9.6475,9.4424v.0684c0,5.1318,4.0713,9.3389,9.5791,9.3389,5.5762,0,9.6816-4.2764,9.6816-9.4072v-.0684c0-5.166-4.0713-9.374-9.6133-9.374Zm5.4736,9.5107c0,3.1133-2.1211,5.7471-5.4736,5.7471-3.2158,0-5.5078-2.668-5.5078-5.8154v-.0684c0-3.1475,2.1211-5.748,5.4395-5.748,3.25,0,5.542,2.6348,5.542,5.8164v.0684Z"/><polygon class="cls-1" points="161.5942 155.5798 142.1626 155.5798 142.1626 159.4802 149.7573 159.4802 149.7573 179.5271 153.9995 179.5271 153.9995 159.4802 161.5942 159.4802 161.5942 155.5798"/><path class="cls-1" d="m170.3179,161.0876c-5.542,0-9.6475,4.2764-9.6475,9.4424v.0684c0,5.1318,4.0713,9.3389,9.5791,9.3389,5.5762,0,9.6816-4.2764,9.6816-9.4072v-.0684c0-5.166-4.0713-9.374-9.6133-9.374Zm5.4736,9.5107c0,3.1133-2.1211,5.7471-5.4736,5.7471-3.2158,0-5.5078-2.668-5.5078-5.8154v-.0684c0-3.1475,2.1211-5.748,5.4395-5.748,3.25,0,5.542,2.6348,5.542,5.8164v.0684Z"/><path class="cls-1" d="m194.4028,161.0876c-2.9082,0-4.79,1.5059-6.124,3.3867v-3.0098h-4.1396v23.5361h4.1396v-8.2793c1.2656,1.6768,3.1475,3.1816,6.124,3.1816,4.3105,0,8.415-3.3867,8.415-9.373v-.0684c0-5.9873-4.1387-9.374-8.415-9.374Zm4.208,9.4424c0,3.5576-2.3271,5.7812-5.166,5.7812-2.8057,0-5.2686-2.292-5.2686-5.7812v-.0684c0-3.4551,2.4629-5.7822,5.2686-5.7822s5.166,2.293,5.166,5.7822v.0684Z"/></g></svg>