<?xml version="1.0" encoding="UTF-8"?><svg id="Layer_2" xmlns="http://www.w3.org/2000/svg" width="89.624" height="77.4054" xmlns:xlink="http://www.w3.org/1999/xlink" viewBox="0 0 89.624 77.4054"><defs><style>.cls-1{fill:none;}.cls-2{clip-path:url(#clippath);}.cls-3{fill:#fff;}</style><clipPath id="clippath"><rect class="cls-1" y=".0004" width="89.624" height="77.405"/></clipPath></defs><g id="Layer_1-2"><polygon class="cls-3" points="44.8119 0 1.6979 38.426 1.6979 60.405 44.8119 21.98 87.9259 60.405 87.9259 38.426 44.8119 0"/><g class="cls-2"><path class="cls-3" d="m1.3503,66.9053h4.7095c1.2002,0,2.145.3301,2.7451.9307.4648.4648.7051,1.0352.7051,1.7393v.0303c0,1.2598-.7202,1.9346-1.5,2.3398,1.23.4199,2.085,1.125,2.085,2.5498v.0303c0,1.875-1.5449,2.8799-3.8848,2.8799H1.3503v-10.5Zm4.3345,4.4248c1.1851,0,1.98-.4648,1.98-1.4248v-.0293c0-.8252-.6597-1.335-1.8447-1.335h-2.6548v2.7891h2.5195Zm.54,4.4404c1.2603,0,2.0249-.4951,2.0249-1.4404v-.0293c0-.8857-.7046-1.4102-2.1597-1.4102h-2.9248v2.8799h3.0596Z"/><path class="cls-3" d="m16.8146,77.4053v-.9746c-.54.6445-1.3652,1.1396-2.5649,1.1396-1.5,0-2.8198-.8555-2.8198-2.4453v-.0293c0-1.7549,1.3647-2.5957,3.21-2.5957.96,0,1.5747.1357,2.1895.3301v-.1494c0-1.0947-.6899-1.6953-1.9497-1.6953-.8848,0-1.5449.1953-2.2646.4951l-.4951-1.4551c.8696-.3896,1.7246-.6602,3.0146-.6602,2.3398,0,3.48,1.2305,3.48,3.3457v4.6943h-1.7998Zm.0449-3.3145c-.4648-.1807-1.1099-.3154-1.8149-.3154-1.1401,0-1.8149.4648-1.8149,1.2295v.0303c0,.75.6748,1.1699,1.5298,1.1699,1.2002,0,2.1001-.6748,2.1001-1.665v-.4492Z"/><path class="cls-3" d="m20.34,73.4903v-.0303c0-2.249,1.7397-4.1396,4.1099-4.1396,1.5,0,2.4297.5557,3.1646,1.3652l-1.125,1.2148c-.5547-.585-1.1396-.9902-2.0547-.9902-1.3198,0-2.2798,1.1406-2.2798,2.5205v.0293c0,1.4102.9746,2.5508,2.3696,2.5508.855,0,1.4849-.4053,2.0552-.9902l1.0947,1.0801c-.7798.8701-1.6948,1.4844-3.2397,1.4844-2.355,0-4.0947-1.8447-4.0947-4.0947Z"/><path class="cls-3" d="m29.34,66.4561h1.8149v6.5391l3.2847-3.5098h2.2051l-3.1499,3.2256,3.2549,4.6943h-2.1001l-2.3848-3.4199-1.1099,1.1553v2.2646h-1.8149v-10.9492Z"/><path class="cls-3" d="m42.9445,75.2159v-4.1699h-1.0054v-1.5605h1.0054v-2.1748h1.8149v2.1748h2.1299v1.5605h-2.1299v3.8848c0,.7051.3599.9893.9746.9893.4053,0,.7651-.0898,1.125-.2695v1.4854c-.4497.2549-.96.4043-1.6348.4043-1.335,0-2.2798-.585-2.2798-2.3242Z"/><path class="cls-3" d="m48.0592,73.4903v-.0303c0-2.2646,1.7998-4.1396,4.2295-4.1396s4.2148,1.8447,4.2148,4.1104v.0293c0,2.25-1.7998,4.125-4.2446,4.125-2.415,0-4.1997-1.8447-4.1997-4.0947Zm6.6294,0v-.0303c0-1.3945-1.0049-2.5498-2.4297-2.5498-1.4551,0-2.3848,1.1406-2.3848,2.5205v.0293c0,1.3809,1.0049,2.5508,2.4146,2.5508,1.4702,0,2.3999-1.1553,2.3999-2.5205Z"/><path class="cls-3" d="m65.6388,68.6153h-3.3296v-1.71h8.5195v1.71h-3.3301v8.79h-1.8599v-8.79Z"/><path class="cls-3" d="m70.4391,73.4903v-.0303c0-2.2646,1.7998-4.1396,4.2295-4.1396s4.2148,1.8447,4.2148,4.1104v.0293c0,2.25-1.7998,4.125-4.2446,4.125-2.415,0-4.1997-1.8447-4.1997-4.0947Zm6.6294,0v-.0303c0-1.3945-1.0049-2.5498-2.4297-2.5498-1.4551,0-2.3848,1.1406-2.3848,2.5205v.0293c0,1.3809,1.0049,2.5508,2.4146,2.5508,1.4702,0,2.3999-1.1553,2.3999-2.5205Z"/><path class="cls-3" d="m80.7292,69.4854h1.8149v1.3203c.585-.8252,1.4097-1.4854,2.6846-1.4854,1.875,0,3.6899,1.4854,3.6899,4.1104v.0293c0,2.625-1.7998,4.1104-3.6899,4.1104-1.3047,0-2.1299-.6602-2.6846-1.3945v3.6299h-1.8149v-10.3203Zm6.3447,3.9746v-.0293c0-1.5303-1.0352-2.5352-2.2651-2.5352s-2.3101,1.0195-2.3101,2.5352v.0293c0,1.5303,1.0801,2.5352,2.3101,2.5352,1.2451,0,2.2651-.9746,2.2651-2.5352Z"/></g></g></svg>